<svg xmlns="http://www.w3.org/2000/svg" xmlns:xlink="http://www.w3.org/1999/xlink" version="1.1" x="0px" y="0px" viewBox="0 0 100 100" enable-background="new 0 0 100 100" xml:space="preserve"><path fill-rule="evenodd" clip-rule="evenodd" d="M13.068,61.282c-1.423,6.248-7.346,28.658-8.01,31.249  c-0.086,0.317-0.094,0.66-0.005,1.002c0.27,1.051,1.341,1.686,2.393,1.415c2.582-0.663,25.018-6.592,31.271-8.019  c1.16-0.263,2.087-0.775,2.929-1.616L55.239,71.72l36.658-36.658l0.183-0.183l-0.003-0.003c3.97-4.166,3.909-10.819-0.181-14.91  L80.033,8.103c-4.091-4.09-10.744-4.15-14.91-0.181L65.121,7.92l-0.183,0.183L28.28,44.761L14.687,58.354  C13.847,59.194,13.333,60.124,13.068,61.282z M81.558,30.782c0.714-0.715,1.884-0.715,2.599,0l0.35,0.349  c0.714,0.714,0.714,1.883,0,2.598L41.248,76.986c-0.714,0.715-1.884,0.717-2.599,0.001l-0.35-0.349c-0.714-0.715-0.714-1.884,0-2.6  L81.558,30.782z M73.861,23.084c0.714-0.715,1.882-0.715,2.598,0l0.349,0.349c0.715,0.715,0.716,1.884,0.002,2.599L33.551,69.291  c-0.715,0.714-1.885,0.714-2.6,0l-0.349-0.35c-0.715-0.715-0.714-1.885,0-2.6L73.861,23.084z M66.162,15.387  c0.716-0.715,1.884-0.715,2.599,0l0.35,0.349c0.715,0.715,0.715,1.884,0,2.599L25.854,61.593c-0.715,0.714-1.886,0.714-2.6,0  l-0.349-0.35c-0.715-0.715-0.714-1.885,0-2.599L66.162,15.387z M35.307,83.741l-14.391,3.691l-8.349-8.349l3.691-14.391  L35.307,83.741z"/><text x="0" y="115" fill="#000000" font-size="5px" font-weight="bold" font-family="'Helvetica Neue', Helvetica, Arial-Unicode, Arial, Sans-serif">Created by Nikita Kozin</text><text x="0" y="120" fill="#000000" font-size="5px" font-weight="bold" font-family="'Helvetica Neue', Helvetica, Arial-Unicode, Arial, Sans-serif">from the Noun Project</text></svg>