<svg xmlns="http://www.w3.org/2000/svg" xmlns:xlink="http://www.w3.org/1999/xlink" version="1.2" baseProfile="tiny" x="0px" y="0px" viewBox="0 0 100 100" xml:space="preserve"><path d="M74,42c8.822,0,16-7.178,16-16s-7.178-16-16-16s-16,7.178-16,16c0,1.149,0.124,2.269,0.356,3.35l-20.299,10.15  C35.121,36.133,30.806,34,26,34c-8.822,0-16,7.178-16,16s7.178,16,16,16c4.806,0,9.121-2.133,12.057-5.499l20.299,10.15  C58.124,71.731,58,72.851,58,74c0,8.822,7.178,16,16,16s16-7.178,16-16s-7.178-16-16-16c-4.806,0-9.121,2.133-12.057,5.499  L41.644,53.35C41.876,52.269,42,51.149,42,50s-0.124-2.269-0.356-3.35l20.299-10.149C64.879,39.867,69.194,42,74,42z M74,18  c4.411,0,8,3.589,8,8s-3.589,8-8,8s-8-3.589-8-8S69.589,18,74,18z M26,58c-4.411,0-8-3.589-8-8s3.589-8,8-8s8,3.589,8,8  S30.411,58,26,58z M74,66c4.411,0,8,3.589,8,8s-3.589,8-8,8s-8-3.589-8-8S69.589,66,74,66z"/><text x="0" y="115" fill="#000000" font-size="5px" font-weight="bold" font-family="'Helvetica Neue', Helvetica, Arial-Unicode, Arial, Sans-serif">Created by Arthur Shlain</text><text x="0" y="120" fill="#000000" font-size="5px" font-weight="bold" font-family="'Helvetica Neue', Helvetica, Arial-Unicode, Arial, Sans-serif">from the Noun Project</text></svg>